HIERARCHY
ROOT Hips
{
	OFFSET -0.179506 -22.333345 2.821913
	CHANNELS 6 Xposition Yposition Zposition Zrotation Yrotation Xrotation 
	JOINT LeftUpLeg
	{
		OFFSET 6.951974 -9.140623 -0.681533
		CHANNELS 3 Zrotation Yrotation Xrotation
		JOINT LeftLeg
		{
			OFFSET 3.427654 -37.519855 -0.449580
			CHANNELS 3 Zrotation Yrotation Xrotation
			JOINT LeftFoot
			{
				OFFSET -1.359570 -39.796059 -4.369333
				CHANNELS 3 Zrotation Yrotation Xrotation
				JOINT LeftToe
				{
					OFFSET 2.635814 -5.579078 11.928840
					CHANNELS 3 Zrotation Yrotation Xrotation
					End Site
					{
						OFFSET 0.000000 0.000000 0.000000
					}
				}
			}
		}
	}
	JOINT RightUpLeg
	{
		OFFSET -6.767048 -9.052170 -0.431982
		CHANNELS 3 Zrotation Yrotation Xrotation
		JOINT RightLeg
		{
			OFFSET -3.829005 -38.256897 -0.885003
			CHANNELS 3 Zrotation Yrotation Xrotation
			JOINT RightFoot
			{
				OFFSET 1.577377 -39.841461 -4.231180
				CHANNELS 3 Zrotation Yrotation Xrotation
				JOINT RightToe
				{
					OFFSET -2.537174 -4.814398 12.334795
					CHANNELS 3 Zrotation Yrotation Xrotation
					End Site
					{
						OFFSET 0.000000 0.000000 0.000000
					}
				}
			}
		}
	}
	JOINT Spine
	{
		OFFSET -0.253288 10.896323 -2.669631
		CHANNELS 3 Zrotation Yrotation Xrotation
		JOINT Spine1
		{
			OFFSET 0.548704 13.518043 0.109247
			CHANNELS 3 Zrotation Yrotation Xrotation
			JOINT Spine2
			{
				OFFSET 0.145701 5.292222 2.542457
				CHANNELS 3 Zrotation Yrotation Xrotation
				JOINT Neck
				{
					OFFSET -0.277840 21.387037 -4.285703
					CHANNELS 3 Zrotation Yrotation Xrotation
					JOINT Head
					{
						OFFSET 0.515184 6.496960 5.134897
						CHANNELS 3 Zrotation Yrotation Xrotation
						End Site
						{
							OFFSET 0.000000 0.000000 0.000000
						}
					}
				}
				JOINT LeftShoulder
				{
					OFFSET 7.884473 12.174932 -3.408961
					CHANNELS 3 Zrotation Yrotation Xrotation
					JOINT LeftArm
					{
						OFFSET 9.097692 3.046888 -0.886815
						CHANNELS 3 Zrotation Yrotation Xrotation
						JOINT LeftForeArm
						{
							OFFSET 25.961220 -1.277207 -2.745643
							CHANNELS 3 Zrotation Yrotation Xrotation
							JOINT LeftHand
							{
								OFFSET 24.923361 0.898606 -0.117091
								CHANNELS 3 Zrotation Yrotation Xrotation
								End Site
								{
									OFFSET 0.000000 0.000000 0.000000
								}
							}
						}
					}
				}
				JOINT RightShoulder
				{
					OFFSET -8.175920 11.883285 -3.861528
					CHANNELS 3 Zrotation Yrotation Xrotation
					JOINT RightArm
					{
						OFFSET -9.601238 3.255117 -0.914307
						CHANNELS 3 Zrotation Yrotation Xrotation
						JOINT RightForeArm
						{
							OFFSET -25.374195 -1.332924 -2.140099
							CHANNELS 3 Zrotation Yrotation Xrotation
							JOINT RightHand
							{
								OFFSET -25.529810 0.777228 -0.555919
								CHANNELS 3 Zrotation Yrotation Xrotation
								End Site
								{
									OFFSET 0.000000 0.000000 0.000000
								}
							}
						}
					}
				}
			}
		}
	}
}
MOTION
Frames: 5
Frame Time: 0.033333
3.918283 90.157158 0.067115 -115.609033 82.452385 -104.429119 19.622657 3.205220 -58.770367 -12.899935 6.476609 70.494679 3.777286 12.984578 -29.736071 1.867906 -1.077882 -1.292254 -19.727922 -13.907612 -44.448783 4.032559 -8.928074 78.487291 2.062588 -11.868784 -33.760714 1.634037 0.525949 -2.729376 1.983339 7.399330 52.742554 -7.224259 3.874734 -7.038232 -1.073600 5.034401 2.475136 1.013188 -8.235929 -22.869014 12.660509 -7.695335 -37.801866 -19.166247 -10.823142 -2.416095 -29.826846 2.537922 -0.080421 0.702784 -17.975426 -15.253805 7.411089 -8.153671 -17.903423 5.200945 26.263806 -1.591903 16.100164 16.525596 -11.085362 -9.462404 41.929652 -11.539566 -9.256539 10.647033 -10.988379 
3.175809 88.619621 0.263193 -63.553774 82.503926 -55.070061 19.546617 3.901195 -57.791265 -11.557783 6.884840 76.989035 2.619772 14.358481 -32.532610 1.677519 -0.867036 -1.175921 -21.066119 -12.031487 -46.309956 5.404065 -6.198978 79.505034 2.009500 -7.808791 -35.684155 1.255876 0.438758 -2.636362 2.784178 5.621673 52.661639 -5.994265 3.385581 -7.099813 -1.248261 4.689142 1.908538 0.556083 -7.818662 -21.702163 11.386051 -7.288665 -36.048908 -18.953201 -13.584038 -2.808972 -28.039738 -1.918230 -0.974955 2.561454 -19.564008 -17.888500 9.964886 -7.394533 -16.358517 7.027113 27.019775 -0.671800 14.480911 16.967388 -11.939450 -6.116141 34.172337 -10.324081 -10.220110 9.426273 -6.220216 
3.167473 88.146774 0.304654 -33.302900 77.161123 -29.359466 19.741829 5.205767 -53.553950 -10.566241 6.816360 82.334047 0.752659 15.507714 -34.462180 1.267905 -0.538840 -1.158820 -21.531541 -9.582453 -45.077418 7.410233 -2.877742 78.042085 2.242443 -3.938268 -36.461146 0.528458 0.231943 -2.718507 2.820647 3.803994 50.627030 -4.131083 2.654212 -6.704265 -1.125387 4.056416 1.791356 -0.511742 -6.265560 -20.671594 9.958738 -6.724645 -34.302194 -16.078266 -16.081969 -3.645336 -23.183208 -6.028451 -2.264248 3.418679 -22.654148 -17.795531 10.320226 -7.360081 -13.857929 7.596901 27.087226 -0.050992 11.904674 15.857488 -12.675245 -2.240160 28.514491 -8.135322 -9.298828 9.837887 -1.652927 
3.742496 88.746429 0.343287 -20.569119 71.109627 -21.020380 19.434248 5.959518 -46.964120 -9.689892 6.068038 84.580054 -0.385391 16.718531 -35.914004 0.856290 -0.519346 -1.150248 -20.769864 -7.043287 -41.421577 8.761034 1.252932 73.968196 1.577739 -3.077727 -37.766964 0.442634 0.114149 -2.643402 2.335891 2.545956 45.622543 -2.222669 1.624228 -6.352091 -0.625501 2.930023 1.974752 -1.051381 -5.883771 -18.171437 9.727764 -6.697723 -30.748933 -12.622978 -18.128764 -4.203048 -14.809133 -8.696829 -5.392642 5.381483 -28.971416 -17.566026 7.889807 -8.535981 -6.529585 7.348843 26.163006 0.791789 8.134004 10.879391 -12.663655 -0.173707 29.855381 -5.601699 -5.602878 10.089970 2.264796 
4.882486 90.560402 0.423414 -13.976316 62.792757 -20.073675 18.988452 6.696351 -36.795953 -10.666847 4.575619 84.380546 -1.032396 19.765975 -37.645846 0.363479 -0.394849 -1.185447 -18.972171 -4.580486 -38.173840 10.103853 4.265185 71.165745 2.371772 -3.184945 -31.540117 0.880854 0.006023 -2.717507 1.300500 0.261568 40.806156 -0.625194 0.357931 -6.831035 0.000587 0.662315 2.714954 0.540745 -5.640440 -13.811548 10.906978 -5.314042 -27.388948 -8.572380 -19.453225 -5.579411 -5.338048 -12.573524 -9.835306 6.383379 -32.109639 -19.788726 10.003125 -8.988228 -5.354752 5.491361 22.731648 -0.581272 3.172505 6.371999 -11.375211 1.244296 37.610861 -5.139820 -5.723515 10.113005 -1.283430 
